<?xml version="1.0" encoding="utf-8"?>
<svg id="Capa_1" style="enable-background:new 0 0 375.354 375.354;" x="0px" y="0px" width="375.354px" height="375.354px" viewBox="0 0 375.354 375.354" xmlns="http://www.w3.org/2000/svg">
  <g transform="matrix(0.498256, 0, 0, 0.5329, 160.893906, 100.405258)">
    <path d="M366.783,55.289c-1.621-3.48-4.84-5.981-8.635-6.666c-0.679-0.123-1.369-0.177-2.065-0.177&#10;&#9;&#9;c-3.146,0-6.083,1.225-8.311,3.438l-31.922,31.93l-22.554-1.729l-1.741-22.565l31.909-31.919c2.726-2.711,3.951-6.59,3.267-10.409&#10;&#9;&#9;c-0.685-3.795-3.188-7.004-6.678-8.596C307.732,2.975,294.047,0,280.5,0c-25.273,0-49.035,9.836-66.917,27.706&#10;&#9;&#9;c-25.965,25.979-34.513,63.242-22.59,97.743L10.414,306.017c-13.712,13.715-13.859,35.908-0.303,49.467l9.752,9.776&#10;&#9;&#9;c6.512,6.503,15.207,10.094,24.476,10.094c9.437,0,18.317-3.692,25.013-10.382l180.585-180.598&#10;&#9;&#9;c9.908,3.401,20.272,5.113,30.829,5.113c25.268,0,49.041-9.848,66.924-27.718C375.49,133.952,383.177,91.162,366.783,55.289z" style="fill: rgb(255, 255, 255);"/>
  </g>
  <g/>
  <g/>
  <g/>
  <g/>
  <g/>
  <g/>
  <g/>
  <g/>
  <g/>
  <g/>
  <g/>
  <g/>
  <g/>
  <g/>
  <g/>
  <g transform="matrix(8.204893, 0, 0, 6.709222, -3.743768, 97.836594)">
    <path d="M14.906,12.468c-2.249,0-4.434,0.18-6.453,0.514c-0.057,0.44-0.094,0.888-0.094,1.348c0,3.531,1.735,6.541,4.18,7.748&#10;&#9;&#9;L12.22,19.87c-0.055-0.369,0.055-0.742,0.294-1.017c0.241-0.283,0.595-0.445,0.968-0.445h2.85c0.373,0,0.726,0.162,0.962,0.439&#10;&#9;&#9;c0.245,0.281,0.355,0.654,0.3,1.02l-0.319,2.212c2.444-1.206,4.181-4.217,4.181-7.749c0-0.46-0.037-0.909-0.094-1.349&#10;&#9;&#9;C19.341,12.649,17.155,12.468,14.906,12.468z" style="fill: rgb(255, 255, 255);"/>
    <path d="M27.342,11.705L16.151,0.516C15.808,0.172,15.357,0,14.906,0c-0.451,0-0.901,0.172-1.245,0.516L2.471,11.705&#10;&#9;&#9;c-0.129,0.128-0.15,0.329-0.053,0.482c0.072,0.114,0.197,0.179,0.326,0.179c0.045,0,0.09-0.007,0.134-0.023&#10;&#9;&#9;c3.165-1.163,7.387-1.874,12.028-1.874c4.642,0,8.864,0.711,12.028,1.873c0.044,0.016,0.089,0.024,0.133,0.024&#10;&#9;&#9;c0.13,0,0.254-0.064,0.327-0.179C27.492,12.034,27.47,11.833,27.342,11.705z" style="fill: rgb(255, 255, 255);"/>
    <path d="M16.331,19.408h-2.85c-0.08,0-0.156,0.035-0.208,0.095c-0.053,0.061-0.076,0.141-0.064,0.22l1.424,9.852&#10;&#9;&#9;c0.019,0.136,0.137,0.236,0.274,0.236c0.137,0,0.254-0.101,0.273-0.236l1.424-9.852c0.012-0.079-0.012-0.16-0.064-0.22&#10;&#9;&#9;C16.487,19.443,16.411,19.408,16.331,19.408z" style="fill: rgb(255, 255, 255);"/>
  </g>
</svg>