<?xml version="1.0" encoding="utf-8"?>
<svg viewBox="0 0 500 500" xmlns="http://www.w3.org/2000/svg">
  <g transform="matrix(1, 0, 0, 1, 51.377998, 51.377995)">
    <polygon points="121.124,93.526 141.188,73.462 16.233,73.462 16.233,93.526 23.881,93.526 &#9;" style="fill: rgba(0, 0, 0, 0);"/>
    <polygon points="373.363,93.526 381.011,93.526 381.011,73.462 256.056,73.462 276.12,93.526 &#9;" style="fill: rgba(0, 0, 0, 0);"/>
    <path d="M382.912,319.94h-9.549V103.075H272.164l-60.328-60.328h-26.428l-60.328,60.328H23.881V319.94h-9.549H0v34.557h397.244&#10;&#9;&#9;V319.94H382.912z M74.722,295.001H47.984v-69.709h26.738V295.001z M74.722,199.51H47.984v-69.708h26.738V199.51z M188.436,307.097&#10;&#9;&#9;h-56.021v-121.91h56.021V307.097z M168.303,126.062c0-16.744,13.574-30.319,30.319-30.319c16.745,0,30.319,13.575,30.319,30.319&#10;&#9;&#9;c0,16.745-13.574,30.318-30.319,30.318C181.878,156.38,168.303,142.807,168.303,126.062z M264.829,307.097h-56.021v-121.91h56.021&#10;&#9;&#9;V307.097z M349.26,295.001h-26.738v-69.709h26.738V295.001z M349.26,199.51h-26.738v-69.708h26.738V199.51z" style="fill: rgba(0, 0, 0, 0);"/>
  </g>
  <g transform="matrix(1, 0, 0, 1, 51.377998, 51.377995)"/>
  <g transform="matrix(1, 0, 0, 1, 51.377998, 51.377995)"/>
  <g transform="matrix(1, 0, 0, 1, 51.377998, 51.377995)"/>
  <g transform="matrix(1, 0, 0, 1, 51.377998, 51.377995)"/>
  <g transform="matrix(1, 0, 0, 1, 51.377998, 51.377995)"/>
  <g transform="matrix(1, 0, 0, 1, 51.377998, 51.377995)"/>
  <g transform="matrix(1, 0, 0, 1, 51.377998, 51.377995)"/>
  <g transform="matrix(1, 0, 0, 1, 51.377998, 51.377995)"/>
  <g transform="matrix(1, 0, 0, 1, 51.377998, 51.377995)"/>
  <g transform="matrix(1, 0, 0, 1, 51.377998, 51.377995)"/>
  <g transform="matrix(1, 0, 0, 1, 51.377998, 51.377995)"/>
  <g transform="matrix(1, 0, 0, 1, 51.377998, 51.377995)"/>
  <g transform="matrix(1, 0, 0, 1, 51.377998, 51.377995)"/>
  <g transform="matrix(1, 0, 0, 1, 51.377998, 51.377995)"/>
  <g transform="matrix(1, 0, 0, 1, 51.377998, 51.377995)"/>
</svg>