<?xml version="1.0" encoding="iso-8859-1"?>
<!-- Generator: Adobe Illustrator 19.0.0, SVG Export Plug-In . SVG Version: 6.00 Build 0)  -->
<svg version="1.1" id="Capa_1" xmlns="http://www.w3.org/2000/svg" xmlns:xlink="http://www.w3.org/1999/xlink" x="0px" y="0px"
	 viewBox="0 0 354.37 354.37" style="enable-background:new 0 0 354.37 354.37;" xml:space="preserve">
<g id="XMLID_1200_">
	<g id="XMLID_1006_">
		<path id="XMLID_454_" d="M298.706,354.37H55.665l22.144-155.915H66.212c-11.688,0-22.521-5.282-29.719-14.491
			c-7.198-9.21-9.707-20.998-6.883-32.342L59.032,33.456c3.691-14.828,15.839-25.89,30.947-28.18L124.77,0l11.514,21.795
			c8.155,15.435,23.445,24.649,40.902,24.649s32.747-9.215,40.902-24.649L229.601,0l34.792,5.276
			c15.107,2.29,27.255,13.352,30.946,28.18l29.421,118.166c2.824,11.344,0.315,23.132-6.883,32.342
			c-7.198,9.209-18.03,14.491-29.719,14.491h-11.596L298.706,354.37z M78.706,334.37h196.959l-35.506-250h23.97l14.796,94.085h9.234
			c5.491,0,10.579-2.481,13.96-6.808c3.382-4.327,4.561-9.864,3.234-15.193L275.931,38.288c-1.734-6.966-7.44-12.162-14.538-13.238
			l-20.745-3.146l-4.878,9.232c-11.68,22.108-33.581,35.308-58.585,35.308S130.28,53.245,118.6,31.137l-4.878-9.232L92.977,25.05
			c-7.098,1.076-12.804,6.272-14.538,13.238L49.018,156.454c-1.327,5.329-0.148,10.866,3.234,15.193
			c3.381,4.326,8.47,6.808,13.96,6.808h9.234L90.242,84.37h23.97L78.706,334.37z"/>
	</g>
</g>
<g>
</g>
<g>
</g>
<g>
</g>
<g>
</g>
<g>
</g>
<g>
</g>
<g>
</g>
<g>
</g>
<g>
</g>
<g>
</g>
<g>
</g>
<g>
</g>
<g>
</g>
<g>
</g>
<g>
</g>
</svg>
