<?xml version='1.0' encoding='utf-8'?>
<!DOCTYPE svg PUBLIC '-//W3C//DTD SVG 1.1//EN' 'http://www.w3.org/Graphics/SVG/1.1/DTD/svg11.dtd'>
<svg version="1.1" xmlns="http://www.w3.org/2000/svg" viewBox="0 0 512 512" xmlns:xlink="http://www.w3.org/1999/xlink" enable-background="new 0 0 512 512">
  <g>
    <g>
      <path d="m51.8,94v-62.6c0-11.3-9.1-20.4-20.4-20.4-11.3,0-20.4,9.1-20.4,20.4v449.2c0,11.3 9.1,20.4 20.4,20.4 11.3,0 20.4-9.1 20.4-20.4v-126.9h44c0.2,0 0.4-0.1 0.6-0.1v-40.7c-0.2,0-0.4-0.1-0.6-0.1h-44v-178h44c0.2,0 0.4-0.1 0.6-0.1v-40.7c-0.2,0-0.4,0-0.6,0h-44z"/>
      <path d="m405.9,244.3h-66.4v70.4c0,11.3-9.1,20.4-20.4,20.4s-20.4-9.1-20.4-20.4v-70.4h-66.4c-11.3,0-20.4-9.1-20.4-20.4 0-11.3 9.1-20.4 20.4-20.4h66.4v-70.5c0-11.3 9.1-20.4 20.4-20.4s20.4,9.1 20.4,20.4v70.4h66.4c11.3,0 20.4,9.1 20.4,20.4 5.68434e-14,11.3-9.1,20.5-20.4,20.5zm74.7-210.9h-320.8c-12.5-7.10543e-15-22.6,10.1-22.6,22.6v335.7c0,12.5 10.1,22.6 22.6,22.6h320.7c11.3,0 20.4-9.1 20.4-20.4v-340.1c0.1-11.3-9-20.4-20.3-20.4z"/>
    </g>
  </g>
</svg>
