<?xml version="1.0" encoding="iso-8859-1"?>
<!-- Generator: Adobe Illustrator 16.0.0, SVG Export Plug-In . SVG Version: 6.00 Build 0)  -->
<!DOCTYPE svg PUBLIC "-//W3C//DTD SVG 1.1//EN" "http://www.w3.org/Graphics/SVG/1.1/DTD/svg11.dtd">
<svg version="1.1" id="Capa_1" xmlns="http://www.w3.org/2000/svg" xmlns:xlink="http://www.w3.org/1999/xlink" x="0px" y="0px"
	 width="375.354px" height="375.354px" viewBox="0 0 375.354 375.354" style="enable-background:new 0 0 375.354 375.354;"
	 xml:space="preserve">
<g>
	<path d="M366.783,55.289c-1.621-3.48-4.84-5.981-8.635-6.666c-0.679-0.123-1.369-0.177-2.065-0.177
		c-3.146,0-6.083,1.225-8.311,3.438l-31.922,31.93l-22.554-1.729l-1.741-22.565l31.909-31.919c2.726-2.711,3.951-6.59,3.267-10.409
		c-0.685-3.795-3.188-7.004-6.678-8.596C307.732,2.975,294.047,0,280.5,0c-25.273,0-49.035,9.836-66.917,27.706
		c-25.965,25.979-34.513,63.242-22.59,97.743L10.414,306.017c-13.712,13.715-13.859,35.908-0.303,49.467l9.752,9.776
		c6.512,6.503,15.207,10.094,24.476,10.094c9.437,0,18.317-3.692,25.013-10.382l180.585-180.598
		c9.908,3.401,20.272,5.113,30.829,5.113c25.268,0,49.041-9.848,66.924-27.718C375.49,133.952,383.177,91.162,366.783,55.289z"/>
</g>
<g>
</g>
<g>
</g>
<g>
</g>
<g>
</g>
<g>
</g>
<g>
</g>
<g>
</g>
<g>
</g>
<g>
</g>
<g>
</g>
<g>
</g>
<g>
</g>
<g>
</g>
<g>
</g>
<g>
</g>
</svg>
