<?xml version='1.0' encoding='iso-8859-1'?>
<svg version="1.1" xmlns="http://www.w3.org/2000/svg" viewBox="0 0 251.837 251.837" xmlns:xlink="http://www.w3.org/1999/xlink" enable-background="new 0 0 251.837 251.837">
  <g>
    <path d="m246.832,59.061c-4.347-5.43-10.829-8.543-17.783-8.543h-160.957c-1.024,0-2.04,0.077-3.043,0.212l-12.447-22.658c-4.295-8.27-12.75-13.194-22.688-13.194h-29.914v30h27.605l18.259,33.239 22.728,98.369c-5.03,6.365-8.043,14.393-8.043,23.116 0,20.6 16.759,37.358 37.358,37.358s37.358-16.759 37.358-37.358c0-0.894-0.043-1.778-0.105-2.657h21.026c-0.062,0.879-0.105,1.763-0.105,2.657 0,20.6 16.759,37.358 37.358,37.358s37.358-16.759 37.358-37.358c0-10.513-4.371-20.018-11.384-26.814l31.689-93.732 .173-.773c1.525-6.787-0.096-13.793-4.443-19.222zm-148.924,147.898c-4.058,0-7.358-3.301-7.358-7.358 0-2.736 1.503-5.123 3.725-6.391 0.256-0.147 0.516-0.28 0.783-0.393 0.045-0.019 0.092-0.032 0.137-0.05 0.219-0.088 0.441-0.164 0.666-0.229 0.103-0.03 0.208-0.055 0.313-0.081 0.189-0.046 0.379-0.084 0.572-0.114 0.094-0.015 0.188-0.032 0.283-0.043 0.289-0.034 0.582-0.057 0.879-0.057 0.263,0 0.517,0.014 0.762,0.039 0.243,0.025 0.482,0.062 0.717,0.11 0.008,0.002 0.015,0.004 0.023,0.006 0.224,0.046 0.444,0.104 0.66,0.17 0.045,0.014 0.086,0.03 0.129,0.045 0.172,0.056 0.341,0.117 0.506,0.186 0.066,0.027 0.127,0.056 0.191,0.085 0.137,0.061 0.272,0.126 0.405,0.195 0.07,0.036 0.139,0.073 0.205,0.111 0.136,0.076 0.268,0.158 0.398,0.242 0.053,0.035 0.11,0.069 0.16,0.104 1.932,1.328 3.202,3.551 3.202,6.067 0.001,4.056-3.3,7.356-7.358,7.356zm95.533,0c-4.058,0-7.358-3.301-7.358-7.358 0-2.516 1.271-4.74 3.202-6.067 0.05-0.035 0.107-0.069 0.16-0.104 0.13-0.084 0.262-0.166 0.398-0.242 0.066-0.038 0.136-0.074 0.205-0.111 0.132-0.069 0.267-0.134 0.404-0.195 0.063-0.029 0.125-0.057 0.191-0.085 0.166-0.068 0.335-0.129 0.506-0.186 0.044-0.015 0.085-0.031 0.129-0.045 0.215-0.066 0.435-0.123 0.658-0.17 0.009-0.002 0.016-0.004 0.025-0.006 0.235-0.048 0.474-0.084 0.717-0.11 0.245-0.025 0.499-0.039 0.762-0.039 0.049,0 0.098,0.006 0.147,0.007 0.187,0.004 0.373,0.01 0.557,0.028 0.085,0.008 0.168,0.023 0.252,0.034 0.152,0.02 0.303,0.04 0.452,0.069 0.083,0.016 0.165,0.037 0.247,0.056 0.147,0.034 0.294,0.07 0.438,0.113 0.079,0.023 0.158,0.051 0.237,0.077 2.917,0.978 5.028,3.732 5.028,6.975 0.002,4.059-3.299,7.359-7.357,7.359zm-116.231-126.441h141.732l-28.976,86.342h-92.728l-20.028-86.342z"/>
  </g>
</svg>
