<?xml version="1.0" encoding="iso-8859-1"?>
<!-- Generator: Adobe Illustrator 19.0.0, SVG Export Plug-In . SVG Version: 6.00 Build 0)  -->
<svg version="1.1" id="Layer_1" xmlns="http://www.w3.org/2000/svg" xmlns:xlink="http://www.w3.org/1999/xlink" x="0px" y="0px"
	 viewBox="0 0 270 270" style="enable-background:new 0 0 270 270;" xml:space="preserve">
<g id="XMLID_467_">
	<path id="XMLID_468_" d="M34.394,265.606C37.322,268.535,41.161,270,45,270c3.839,0,7.678-1.465,10.606-4.394L111.213,210h47.574
		l55.607,55.606C217.322,268.535,221.161,270,225,270s7.678-1.465,10.606-4.394c5.858-5.858,5.858-15.354,0-21.213L201.213,210H215
		c8.284,0,15-6.716,15-15V15c0-8.284-6.716-15-15-15H55c-8.284,0-15,6.716-15,15v180c0,8.284,6.716,15,15,15h13.787l-34.393,34.394
		C28.535,250.252,28.535,259.748,34.394,265.606z M105,165c-8.284,0-15-6.716-15-15c0-8.285,6.716-15,15-15c8.284,0,15,6.715,15,15
		C120,158.284,113.284,165,105,165z M165,165c-8.284,0-15-6.716-15-15c0-8.285,6.716-15,15-15s15,6.715,15,15
		C180,158.284,173.284,165,165,165z M70,30h130v60H70V30z"/>
</g>
<g>
</g>
<g>
</g>
<g>
</g>
<g>
</g>
<g>
</g>
<g>
</g>
<g>
</g>
<g>
</g>
<g>
</g>
<g>
</g>
<g>
</g>
<g>
</g>
<g>
</g>
<g>
</g>
<g>
</g>
</svg>
