<?xml version="1.0" encoding="UTF-8" standalone="no"?>
<!-- Generator: Adobe Illustrator 16.0.0, SVG Export Plug-In . SVG Version: 6.00 Build 0)  -->

<svg
   xmlns:dc="http://purl.org/dc/elements/1.1/"
   xmlns:cc="http://creativecommons.org/ns#"
   xmlns:rdf="http://www.w3.org/1999/02/22-rdf-syntax-ns#"
   xmlns:svg="http://www.w3.org/2000/svg"
   xmlns="http://www.w3.org/2000/svg"
   xmlns:sodipodi="http://sodipodi.sourceforge.net/DTD/sodipodi-0.dtd"
   xmlns:inkscape="http://www.inkscape.org/namespaces/inkscape"
   version="1.1"
   id="Capa_1"
   x="0px"
   y="0px"
   width="800px"
   height="800px"
   viewBox="0 0 800 800"
   style="enable-background:new 0 0 800 800;"
   xml:space="preserve"
   sodipodi:docname="schools-marker.svg"
   inkscape:version="0.92.0 r"><metadata
     id="metadata3830"><rdf:RDF><cc:Work
         rdf:about=""><dc:format>image/svg+xml</dc:format><dc:type
           rdf:resource="http://purl.org/dc/dcmitype/StillImage" /><dc:title></dc:title></cc:Work></rdf:RDF></metadata><defs
     id="defs3828" /><sodipodi:namedview
     pagecolor="#ffffff"
     bordercolor="#666666"
     borderopacity="1"
     objecttolerance="10"
     gridtolerance="10"
     guidetolerance="10"
     inkscape:pageopacity="0"
     inkscape:pageshadow="2"
     inkscape:window-width="1280"
     inkscape:window-height="707"
     id="namedview3826"
     showgrid="false"
     inkscape:zoom="0.4975"
     inkscape:cx="66.331658"
     inkscape:cy="400"
     inkscape:window-x="0"
     inkscape:window-y="23"
     inkscape:window-maximized="0"
     inkscape:current-layer="Capa_1" /><circle
     id="path3832"
     cx="403.01508"
     cy="407.03519"
     r="378.89447"
     style="stroke-width:2.936;fill:#d6edb3;stroke:#000000;stroke-opacity:1;stroke-miterlimit:4;stroke-dasharray:none;fill-opacity:1" /><g
     id="g3793"
     transform="matrix(0.65672816,0,0,0.65672816,140.70352,117.55205)"
     style="fill:#008000"><path
       d="M 214.418,263.604 V 726.908 H 345.627 V 574.348 H 454.594 V 726.91 H 585.805 V 263.604 L 400.111,139.322 Z m 120.311,288.95 h -65.38 v -65.382 h 65.38 z m 0,-98.072 h -65.38 v -65.376 h 65.38 z m 0,-98.068 h -65.38 v -65.382 h 65.38 z M 465.49,291.032 h 65.383 v 65.382 H 465.49 Z m 0,98.073 h 65.383 v 65.376 H 465.49 Z m 0,98.067 h 65.383 v 65.382 H 465.49 Z m -32.685,65.382 h -65.384 v -65.382 h 65.384 z m 0,-98.072 h -65.384 v -65.376 h 65.384 z m 0,-98.068 h -65.384 v -65.382 h 65.384 z"
       id="path3781"
       inkscape:connector-curvature="0"
       style="fill:#008000" /><polygon
       points="400.111,73.09 141.31,245.506 202.262,245.506 394.047,117.16 406.176,117.16 597.959,245.506 658.913,245.506 "
       id="polygon3783"
       style="fill:#008000" /><path
       d="M 783.654,452.672 H 616.572 V 726.908 H 783.654 Z M 732.805,649.501 H 667.43 V 584.12 h 65.375 z m 0,-96.947 H 667.43 v -65.382 h 65.375 z"
       id="path3785"
       inkscape:connector-curvature="0"
       style="fill:#008000" /><rect
       x="616.57202"
       y="411.32501"
       width="183.42799"
       height="19.555"
       id="rect3787"
       style="fill:#008000" /><path
       d="M 183.43,452.672 H 16.344 V 726.908 H 183.43 Z M 132.572,649.501 H 67.191 V 584.12 h 65.381 z m 0,-96.947 H 67.191 v -65.382 h 65.381 z"
       id="path3789"
       inkscape:connector-curvature="0"
       style="fill:#008000" /><rect
       y="411.32501"
       width="183.42999"
       height="19.555"
       id="rect3791"
       x="0"
       style="fill:#008000" /></g><g
     id="g3795"
     transform="matrix(0.34517038,0,0,0.34517038,0,476.0022)" /><g
     id="g3797"
     transform="matrix(0.34517038,0,0,0.34517038,0,476.0022)" /><g
     id="g3799"
     transform="matrix(0.34517038,0,0,0.34517038,0,476.0022)" /><g
     id="g3801"
     transform="matrix(0.34517038,0,0,0.34517038,0,476.0022)" /><g
     id="g3803"
     transform="matrix(0.34517038,0,0,0.34517038,0,476.0022)" /><g
     id="g3805"
     transform="matrix(0.34517038,0,0,0.34517038,0,476.0022)" /><g
     id="g3807"
     transform="matrix(0.34517038,0,0,0.34517038,0,476.0022)" /><g
     id="g3809"
     transform="matrix(0.34517038,0,0,0.34517038,0,476.0022)" /><g
     id="g3811"
     transform="matrix(0.34517038,0,0,0.34517038,0,476.0022)" /><g
     id="g3813"
     transform="matrix(0.34517038,0,0,0.34517038,0,476.0022)" /><g
     id="g3815"
     transform="matrix(0.34517038,0,0,0.34517038,0,476.0022)" /><g
     id="g3817"
     transform="matrix(0.34517038,0,0,0.34517038,0,476.0022)" /><g
     id="g3819"
     transform="matrix(0.34517038,0,0,0.34517038,0,476.0022)" /><g
     id="g3821"
     transform="matrix(0.34517038,0,0,0.34517038,0,476.0022)" /><g
     id="g3823"
     transform="matrix(0.34517038,0,0,0.34517038,0,476.0022)" /></svg>