<?xml version="1.0" encoding="utf-8"?>
<!-- Generator: Adobe Illustrator 16.0.3, SVG Export Plug-In . SVG Version: 6.00 Build 0)  -->
<!DOCTYPE svg PUBLIC "-//W3C//DTD SVG 1.1//EN" "http://www.w3.org/Graphics/SVG/1.1/DTD/svg11.dtd">
<svg version="1.1" id="Layer_1" xmlns="http://www.w3.org/2000/svg" xmlns:xlink="http://www.w3.org/1999/xlink" x="0px" y="0px"
	 width="1417.32px" height="1417.32px" viewBox="0 0 1417.32 1417.32" enable-background="new 0 0 1417.32 1417.32"
	 xml:space="preserve">
<g display="none">
	<path display="inline" fill-rule="evenodd" clip-rule="evenodd" fill="#565555" d="M647.363,802.41
		c0.43,0.798,0.86,1.597,1.29,2.396c-2.434,1.965-5.071,3.726-7.273,5.924c-42.504,42.422-85.163,84.695-127.24,127.537
		c-8.058,8.205-15.315,17.952-20.323,28.259c-18.722,38.535-13.494,85.112,17.22,117.509c22.637,23.875,50.506,34.566,83.825,32.676
		c28.117-1.598,50.812-13.344,70.082-32.688c54.598-54.804,108.879-109.923,163.451-164.752
		c50.701-50.938,101.739-101.544,152.288-152.632c6.765-6.838,12.48-15.146,17.012-23.662c8.822-16.573,11.501-34.708,10.294-53.413
		c-1.221-18.938-6.311-36.84-18.396-51.521c-12.173-14.785-25.552-28.647-39.096-42.223
		c-99.815-100.055-199.595-200.15-299.896-299.718c-24.177-24.001-54.976-29.596-87.843-24.674
		c-25.296,3.789-45.612,16.494-62.146,35.896c-14.723,17.274-22.771,37.263-24.327,59.594
		c-2.371,33.992,10.028,62.186,34.289,86.065c44.687,43.985,88.779,88.577,133.106,132.93c1.956,1.957,3.777,4.048,6.872,7.381
		c-4.68,0-7.695,0-10.71,0c-148.564,0-297.13-0.001-445.695,0.011c-2.645,0-5.353-0.189-7.925,0.281
		c-25.727,4.713-46.861,16.977-63.99,37.033c-22.983,26.907-28.117,57.724-21.314,91.138c4.568,22.439,17.322,40.052,34.52,55.188
		c19.851,17.473,43.086,25.236,68.661,25.299c144.705,0.345,289.411,0.167,434.117,0.167
		C641.266,802.41,644.313,802.41,647.363,802.41z M1108.563,707.862c0,116-0.088,231.999,0.088,347.996
		c0.028,19.121-8.77,32.925-23.403,43.961c-10.843,8.172-23.646,9.801-36.463,9.973c-31.828,0.424-63.666,0.037-95.498,0.234
		c-5.66,0.037-11.444,0.78-16.945,2.126c-23.707,5.792-42.96,18.414-58.253,37.608c-20.004,25.105-26.445,53.532-20.872,84.523
		c4.688,26.063,18.739,47.059,39.545,63.275c17.971,14.01,38.383,21.569,61.418,21.507c30.386-0.079,60.784,0.492,91.154-0.206
		c18.812-0.433,37.684-1.905,56.338-4.354c22.721-2.982,44.187-10.963,64.608-21.131c19.838-9.88,37.967-22.42,54.931-36.916
		c25.57-21.852,46.561-47.296,62.852-76.503c21.815-39.109,30.851-81.795,30.916-126.119c0.321-222.593,0.219-445.185,0.022-667.778
		c-0.017-19.362-1.4-38.753-2.84-58.078c-2.089-28.025-10.575-54.396-22.648-79.608c-18.17-37.952-44.872-68.977-77.66-95.071
		c-46.271-36.826-99.567-53.531-158.012-54.812c-32.541-0.712-65.111-0.252-97.667-0.024c-6.618,0.047-13.288,1.079-19.827,2.245
		c-23.189,4.131-41.961,15.917-57.842,33.11c-17.071,18.48-26.03,40.314-27.022,65.108c-0.844,21.072,3.787,41.142,15.637,59.08
		c20.06,30.367,47.447,48.471,84.536,49.389c34.87,0.861,69.754,1.094,104.634,1.511c24.573,0.292,48.519,27.187,48.448,49.51
		C1108.364,474.898,1108.563,591.381,1108.563,707.862z"/>
	<path display="inline" fill-rule="evenodd" clip-rule="evenodd" fill="#565555" d="M647.363,802.41c-3.05,0-6.098,0-9.146,0
		c-144.706,0-289.412,0.178-434.117-0.167c-25.575-0.063-48.811-7.826-68.661-25.299c-17.197-15.137-29.951-32.749-34.52-55.188
		c-6.803-33.414-1.669-64.23,21.314-91.138c17.129-20.057,38.264-32.32,63.99-37.033c2.572-0.471,5.28-0.281,7.925-0.281
		c148.565-0.012,297.131-0.011,445.695-0.011c3.015,0,6.03,0,10.71,0c-3.095-3.333-4.916-5.424-6.872-7.381
		c-44.327-44.353-88.42-88.944-133.106-132.93c-24.261-23.88-36.66-52.073-34.289-86.065c1.557-22.331,9.604-42.319,24.327-59.594
		c16.533-19.401,36.85-32.106,62.146-35.896c32.867-4.922,63.666,0.673,87.843,24.674
		c100.301,99.567,200.08,199.663,299.896,299.718c13.544,13.575,26.923,27.438,39.096,42.223
		c12.085,14.682,17.175,32.584,18.396,51.521c1.207,18.705-1.472,36.84-10.294,53.413c-4.531,8.516-10.247,16.824-17.012,23.662
		c-50.549,51.088-101.587,101.693-152.288,152.632c-54.572,54.829-108.854,109.948-163.451,164.752
		c-19.271,19.344-41.965,31.09-70.082,32.688c-33.319,1.891-61.188-8.801-83.825-32.676c-30.714-32.396-35.941-78.974-17.22-117.509
		c5.008-10.307,12.266-20.054,20.323-28.259c42.077-42.842,84.736-85.115,127.24-127.537c2.202-2.198,4.84-3.959,7.273-5.924
		C648.224,804.007,647.793,803.208,647.363,802.41z"/>
	<path display="inline" fill-rule="evenodd" clip-rule="evenodd" fill="#565555" d="M1108.563,707.862
		c0-116.481-0.199-232.964,0.174-349.443c0.07-22.323-23.875-49.218-48.448-49.51c-34.88-0.417-69.764-0.649-104.634-1.511
		c-37.089-0.918-64.477-19.021-84.536-49.389c-11.85-17.938-16.48-38.008-15.637-59.08c0.992-24.794,9.951-46.628,27.022-65.108
		c15.881-17.193,34.652-28.979,57.842-33.11c6.539-1.166,13.209-2.198,19.827-2.245c32.556-0.228,65.126-0.688,97.667,0.024
		c58.444,1.28,111.74,17.985,158.012,54.812c32.788,26.095,59.49,57.119,77.66,95.071c12.073,25.213,20.56,51.583,22.648,79.608
		c1.439,19.325,2.823,38.716,2.84,58.078c0.196,222.594,0.299,445.186-0.022,667.778c-0.065,44.324-9.101,87.01-30.916,126.119
		c-16.291,29.207-37.281,54.651-62.852,76.503c-16.964,14.496-35.093,27.036-54.931,36.916
		c-20.422,10.168-41.888,18.148-64.608,21.131c-18.654,2.448-37.526,3.921-56.338,4.354c-30.37,0.698-60.769,0.127-91.154,0.206
		c-23.035,0.063-43.447-7.497-61.418-21.507c-20.806-16.217-34.856-37.212-39.545-63.275c-5.573-30.991,0.868-59.418,20.872-84.523
		c15.293-19.194,34.546-31.816,58.253-37.608c5.501-1.346,11.285-2.089,16.945-2.126c31.832-0.197,63.67,0.189,95.498-0.234
		c12.817-0.172,25.62-1.801,36.463-9.973c14.634-11.036,23.432-24.84,23.403-43.961
		C1108.476,939.861,1108.563,823.862,1108.563,707.862z"/>
</g>
<g>
	<path fill-rule="evenodd" clip-rule="evenodd" fill="#565555" d="M72.678,567.972C71.412,306.91,267.508,99.865,534.926,78.564
		c248.844-19.822,480.029,162.831,519.352,412.083c16.835,106.757,0.432,209.372-50.855,305.017
		c-10.463,19.518-8.038,31.058,7.048,45.897c98.004,96.448,195.355,193.56,292.677,290.688
		c53.256,53.148,56.37,123.862,8.177,172.539c-48.009,48.487-121.146,47.309-173.523-4.077
		c-98.144-96.301-196.075-192.811-293.086-290.237c-16.907-16.983-28.766-19.219-51.05-7.745
		C484.19,1162.06,114.931,966.428,72.953,621.561C70.809,603.948,72.678,585.851,72.678,567.972z M565.688,239.265
		c-182.542-0.262-333.225,147.943-333.968,328.471c-0.738,179.459,150.417,328.766,333.233,329.167
		c183.141,0.398,332.519-147.138,332.63-328.531C897.688,386.755,749.221,239.534,565.688,239.265z"/>
</g>
</svg>
